<svg xmlns="http://www.w3.org/2000/svg" viewBox="0 0 1600 900" role="img" aria-label="Endless overgrown post-human landscape">
  <defs>
    <linearGradient id="sky" x1="0" y1="0" x2="0" y2="1">
      <stop offset="0%" stop-color="#b9d4d1"/>
      <stop offset="38%" stop-color="#789294"/>
      <stop offset="100%" stop-color="#17231f"/>
    </linearGradient>
    <linearGradient id="fog" x1="0" y1="0" x2="1" y2="0">
      <stop offset="0%" stop-color="#dff3ee" stop-opacity="0"/>
      <stop offset="50%" stop-color="#dff3ee" stop-opacity=".34"/>
      <stop offset="100%" stop-color="#dff3ee" stop-opacity="0"/>
    </linearGradient>
    <filter id="soft">
      <feGaussianBlur stdDeviation="9"/>
    </filter>
    <pattern id="windows" width="54" height="48" patternUnits="userSpaceOnUse">
      <rect x="8" y="9" width="26" height="18" fill="#0b1414" opacity=".72"/>
      <rect x="40" y="9" width="8" height="18" fill="#0b1414" opacity=".62"/>
      <rect x="6" y="34" width="18" height="8" fill="#0b1414" opacity=".62"/>
    </pattern>
    <pattern id="ivy" width="42" height="42" patternUnits="userSpaceOnUse">
      <path d="M2 8 C14 16 22 8 38 18 M8 30 C18 22 29 34 40 26" stroke="#315f25" stroke-width="4" fill="none" opacity=".9"/>
      <circle cx="12" cy="13" r="4" fill="#5b8f34"/>
      <circle cx="27" cy="25" r="3" fill="#7aa64a"/>
      <circle cx="35" cy="18" r="2.5" fill="#426d2b"/>
    </pattern>
  </defs>
  <rect width="1600" height="900" fill="url(#sky)"/>
  <rect y="352" width="1600" height="210" fill="url(#fog)" filter="url(#soft)" opacity=".7"/>
  <g opacity=".45" fill="#1d3434">
    <rect x="80" y="130" width="170" height="560"/>
    <rect x="300" y="210" width="115" height="470"/>
    <rect x="460" y="95" width="190" height="595"/>
    <rect x="720" y="185" width="120" height="510"/>
    <rect x="905" y="118" width="230" height="585"/>
    <rect x="1200" y="235" width="138" height="468"/>
    <rect x="1390" y="160" width="150" height="535"/>
  </g>
  <g opacity=".74">
    <path d="M0 705 C180 645 236 680 382 610 C530 538 662 610 800 560 C1012 484 1112 530 1260 470 C1410 410 1490 438 1600 390 L1600 900 L0 900 Z" fill="#254126"/>
    <path d="M0 760 C190 708 346 732 502 668 C704 584 850 668 1042 598 C1240 526 1412 548 1600 490 L1600 900 L0 900 Z" fill="#172a1a"/>
  </g>
  <g>
    <path d="M1040 662 C1190 606 1364 592 1600 618" stroke="#55615a" stroke-width="34" opacity=".75" fill="none"/>
    <path d="M1036 662 C1190 606 1364 592 1600 618" stroke="#1c241f" stroke-width="22" opacity=".9" fill="none"/>
    <path d="M1090 650 l-20 88 M1270 612 l-10 92 M1450 608 l12 96" stroke="#5a635d" stroke-width="10" opacity=".62"/>
  </g>
  <g>
    <rect x="42" y="302" width="320" height="410" fill="#b8b49a" opacity=".82"/>
    <rect x="42" y="302" width="320" height="410" fill="url(#windows)" opacity=".95"/>
    <rect x="42" y="302" width="320" height="410" fill="url(#ivy)" opacity=".82"/>
    <path d="M42 302 l320 0 l-28 40 l-290 0 Z" fill="#d8d0ac" opacity=".35"/>
    <path d="M410 430 l245 60 l-34 176 l-270 -70 Z" fill="#6b6a58" opacity=".56"/>
    <path d="M394 428 l242 58" stroke="#202923" stroke-width="16" opacity=".45"/>
  </g>
  <g fill="none" stroke-linecap="round">
    <path d="M180 302 C176 420 188 520 152 714" stroke="#315f25" stroke-width="13"/>
    <path d="M260 302 C246 420 278 540 228 718" stroke="#4b7b31" stroke-width="10"/>
    <path d="M315 330 C322 470 292 580 334 710" stroke="#325924" stroke-width="9"/>
    <path d="M536 480 C514 548 474 606 430 646" stroke="#416d2b" stroke-width="8"/>
  </g>
  <g opacity=".84">
    <circle cx="101" cy="748" r="54" fill="#24451e"/>
    <circle cx="210" cy="730" r="70" fill="#315f25"/>
    <circle cx="356" cy="776" r="84" fill="#1f3c1a"/>
    <circle cx="780" cy="746" r="118" fill="#294d22"/>
    <circle cx="1056" cy="770" r="98" fill="#203f1d"/>
    <circle cx="1330" cy="732" r="126" fill="#2f5d2a"/>
    <circle cx="1515" cy="790" r="88" fill="#223e20"/>
  </g>
  <path d="M530 900 C640 798 706 748 800 686 C905 618 1042 558 1168 468" stroke="#d2e5d9" stroke-width="3" opacity=".38" fill="none"/>
  <path d="M790 686 C765 742 730 802 704 900" stroke="#d2e5d9" stroke-width="2" opacity=".26" fill="none"/>
  <text x="58" y="826" fill="#d7e7dc" opacity=".5" font-family="monospace" font-size="16" letter-spacing="6">NO END / RETURNING / NO ONE LEFT</text>
</svg>
